<?xml version="1.0" standalone="no"?>
<!DOCTYPE svg PUBLIC "-//W3C//DTD SVG 20010904//EN"
 "http://www.w3.org/TR/2001/REC-SVG-20010904/DTD/svg10.dtd">
<svg version="1.0" xmlns="http://www.w3.org/2000/svg"
 width="420.000000pt" height="420.000000pt" viewBox="0 0 420.000000 420.000000"
 preserveAspectRatio="xMidYMid meet">
<metadata>
Created by potrace 1.11, written by Peter Selinger 2001-2013
</metadata>
<g transform="translate(0.000000,420.000000) scale(0.100000,-0.100000)"
fill="#000000" stroke="none">
<path d="M0 2100 l0 -2100 2100 0 2100 0 0 2100 0 2100 -2100 0 -2100 0 0
-2100z m2654 1429 c474 -93 871 -177 883 -185 34 -21 55 -59 55 -97 0 -66
-446 -1375 -609 -1787 -215 -543 -388 -717 -733 -737 -87 -5 -119 -2 -186 15
-111 28 -1166 506 -1240 562 -97 73 -170 192 -195 319 -17 90 -3 331 20 331 3
0 299 -118 656 -263 l650 -263 2 -78 c3 -147 45 -259 118 -324 57 -50 113 -66
212 -60 239 14 342 180 655 1053 150 418 385 1131 376 1140 -7 7 -1451 296
-1462 292 -4 -1 -128 -331 -275 -732 -255 -698 -267 -730 -300 -752 -19 -13
-49 -23 -67 -23 -44 0 -101 49 -109 94 -5 26 45 172 263 772 149 406 280 765
292 797 23 62 62 97 109 97 14 0 412 -77 885 -171z m-599 -489 c53 -33 69 -94
40 -150 -23 -45 -68 -64 -134 -57 -48 5 -61 11 -88 41 -103 112 48 249 182
166z m549 -156 c154 -42 290 -83 302 -90 61 -41 56 -160 -8 -191 -48 -24 -69
-22 -244 27 -98 28 -222 63 -274 77 -114 32 -146 52 -161 103 -15 51 11 107
61 132 19 10 37 18 40 18 2 0 130 -34 284 -76z m-723 -320 c106 -54 67 -214
-53 -214 -121 0 -190 108 -121 190 14 18 36 36 47 41 25 10 91 2 127 -17z
m529 -169 c146 -47 276 -93 290 -104 36 -26 51 -61 46 -104 -5 -47 -38 -84
-85 -97 -31 -9 -65 0 -311 81 -161 54 -284 100 -298 112 -36 33 -48 87 -28
128 18 39 59 68 96 69 14 0 144 -38 290 -85z m-727 -269 c52 -22 72 -51 72
-106 0 -56 -27 -92 -80 -110 -43 -14 -130 14 -158 52 -38 51 -20 134 35 165
30 16 91 16 131 -1z m524 -192 c148 -48 280 -93 295 -100 30 -16 58 -61 58
-94 0 -58 -58 -120 -111 -120 -23 0 -440 133 -536 171 -29 12 -59 32 -69 47
-22 33 -21 94 0 127 15 23 65 53 88 55 4 0 128 -39 275 -86z"/>
</g>
</svg>
