<?xml version="1.0" standalone="no"?>
<!DOCTYPE svg PUBLIC "-//W3C//DTD SVG 20010904//EN"
 "http://www.w3.org/TR/2001/REC-SVG-20010904/DTD/svg10.dtd">
<svg version="1.0" xmlns="http://www.w3.org/2000/svg"
 width="1652.000000pt" height="272.000000pt" viewBox="0 0 1652.000000 272.000000"
 preserveAspectRatio="xMidYMid meet">

<g transform="translate(0.000000,272.000000) scale(0.100000,-0.100000)"
fill="#000000" stroke="none">
<path d="M2470 2643 c-64 -11 -238 -71 -360 -125 -144 -63 -360 -176 -360
-188 0 -4 44 -10 99 -13 170 -10 261 -56 314 -158 27 -50 29 -61 25 -139 -7
-133 -65 -253 -208 -426 -116 -140 -382 -333 -577 -419 -227 -99 -355 -129
-536 -123 -108 3 -129 7 -182 31 -104 49 -153 114 -162 216 -5 51 9 135 33
196 13 32 -64 -33 -212 -180 -181 -180 -272 -306 -290 -401 -9 -48 15 -98 58
-121 38 -21 174 -24 413 -9 379 23 704 -74 1232 -367 115 -64 260 -141 323
-171 426 -203 872 -236 1292 -96 372 124 743 413 1037 807 180 241 331 499
331 567 0 69 -72 109 -127 71 -13 -9 -49 -55 -82 -103 -198 -288 -461 -550
-694 -691 -247 -149 -478 -224 -732 -238 -262 -14 -455 49 -604 196 -67 66
-87 93 -129 182 -84 172 -110 371 -78 588 31 207 89 355 236 601 119 200 161
293 168 377 6 74 -11 107 -63 129 -32 13 -109 17 -165 7z"/>
<path d="M13516 2114 c-14 -14 -16 -94 -16 -737 0 -414 4 -728 9 -736 12 -19
121 -27 150 -12 l21 12 0 734 c0 716 0 735 -19 745 -31 16 -127 13 -145 -6z"/>
<path d="M14748 2123 c-17 -4 -18 -48 -18 -743 0 -721 0 -740 19 -750 25 -13
107 -13 132 0 18 10 19 24 19 281 0 157 4 269 9 267 5 -1 102 -124 215 -273
130 -171 214 -272 228 -277 37 -10 128 -9 149 2 10 6 19 18 19 28 0 9 -88 132
-196 272 -108 140 -202 263 -208 272 -9 15 17 46 177 206 198 199 213 222 160
243 -45 18 -141 5 -170 -23 -14 -12 -105 -110 -202 -217 l-176 -194 -3 444
c-2 403 -4 445 -19 457 -16 11 -98 15 -135 5z"/>
<path d="M5477 2002 c-16 -17 -17 -79 -17 -691 l0 -671 26 -10 c33 -13 95 -13
128 0 l26 10 0 260 0 260 123 0 c199 0 322 37 415 124 87 82 132 191 132 327
0 208 -109 346 -312 394 -46 11 -124 15 -284 15 -201 0 -222 -2 -237 -18z
m457 -147 c74 -19 121 -55 154 -119 23 -44 27 -63 27 -136 -1 -98 -21 -153
-76 -209 -60 -60 -107 -74 -261 -79 l-138 -4 0 281 0 281 118 0 c73 0 140 -6
176 -15z"/>
<path d="M11441 1994 c-21 -26 -21 -34 -21 -683 0 -374 4 -662 9 -670 12 -19
116 -27 154 -12 l27 11 0 260 0 260 123 0 c67 0 152 7 190 15 224 47 357 209
357 435 0 211 -114 352 -319 396 -45 9 -135 14 -283 14 l-217 0 -20 -26z m448
-135 c122 -26 196 -120 196 -249 0 -89 -20 -152 -66 -204 -64 -73 -111 -89
-271 -94 l-138 -4 0 281 0 281 115 0 c62 0 136 -5 164 -11z"/>
<path d="M1444 1935 c-170 -46 -352 -182 -414 -310 -121 -249 224 -284 510
-52 219 178 223 379 7 376 -29 0 -75 -6 -103 -14z"/>
<path d="M9370 1913 c-27 -10 -30 -26 -30 -145 l0 -118 -75 0 c-83 0 -95 -9
-95 -70 0 -61 12 -70 95 -70 l73 0 4 -342 c5 -391 10 -420 78 -488 63 -63 182
-86 300 -59 67 15 80 32 80 100 0 32 -4 61 -10 64 -5 3 -30 -1 -55 -10 -61
-20 -113 -19 -152 5 -56 34 -63 79 -63 427 l0 302 138 3 137 3 0 65 0 65 -137
3 -138 3 0 125 c0 124 0 124 -26 134 -27 11 -99 12 -124 3z"/>
<path d="M3380 1844 c-112 -30 -199 -82 -285 -168 -189 -190 -218 -429 -68
-567 195 -179 578 -93 758 170 62 90 88 168 88 261 1 149 -84 260 -233 304
-66 20 -187 20 -260 0z"/>
<path d="M6729 1656 c-166 -46 -283 -173 -325 -353 -23 -98 -15 -313 15 -405
60 -186 214 -288 436 -288 195 0 336 72 420 215 117 197 106 518 -24 688 -51
67 -131 118 -224 143 -64 17 -235 17 -298 0z m281 -164 c97 -48 145 -140 156
-300 11 -153 -26 -291 -96 -359 -58 -56 -94 -68 -206 -68 -94 0 -104 2 -149
30 -90 56 -132 146 -142 305 -13 233 78 394 237 418 79 12 137 4 200 -26z"/>
<path d="M7800 1648 c-93 -34 -144 -70 -195 -139 -119 -162 -141 -487 -45
-685 40 -81 93 -134 176 -175 67 -33 71 -34 194 -34 106 1 134 4 183 24 82 32
140 79 148 120 9 44 -1 111 -17 118 -7 3 -47 -17 -88 -45 -43 -28 -96 -55
-126 -62 -95 -23 -202 3 -257 62 -119 127 -116 493 5 622 68 73 200 89 307 37
33 -16 75 -41 94 -55 19 -14 41 -26 48 -26 20 0 33 34 33 86 0 42 -4 51 -39
85 -58 55 -136 81 -256 86 -86 3 -109 0 -165 -19z"/>
<path d="M10240 1661 c-78 -12 -137 -29 -193 -57 -69 -35 -87 -57 -87 -103 0
-81 23 -89 111 -42 87 47 160 64 258 59 98 -4 133 -20 171 -75 20 -30 25 -51
28 -128 l4 -92 -143 -6 c-257 -11 -389 -68 -450 -195 -27 -57 -31 -153 -10
-227 19 -66 96 -143 166 -167 146 -51 290 -26 415 73 l49 39 3 -58 3 -57 49
-3 c27 -2 60 -1 73 3 l24 6 -4 397 c-2 280 -7 408 -15 434 -16 48 -69 117
-112 145 -68 47 -222 71 -340 54z m290 -681 l0 -109 -62 -51 c-168 -136 -374
-88 -372 86 2 130 93 182 317 183 l117 1 0 -110z"/>
<path d="M12685 1651 c-212 -61 -329 -246 -328 -521 0 -284 106 -450 324 -506
89 -23 262 -15 340 15 130 50 226 153 270 289 30 92 38 298 15 395 -42 177
-146 289 -310 333 -71 19 -237 17 -311 -5z m262 -142 c101 -31 165 -129 185
-283 13 -100 -1 -233 -31 -302 -27 -59 -79 -114 -136 -140 -74 -35 -191 -34
-263 2 -102 51 -151 145 -159 309 -11 205 45 341 166 405 50 26 165 31 238 9z"/>
<path d="M14105 1657 c-120 -40 -183 -101 -211 -203 -14 -54 -15 -73 -5 -121
21 -108 90 -176 236 -234 194 -78 235 -110 242 -186 5 -62 -20 -110 -73 -137
-31 -17 -58 -21 -134 -21 -92 0 -98 1 -180 42 -95 48 -105 50 -114 27 -9 -24
-7 -89 3 -117 11 -30 89 -69 173 -87 80 -18 238 -8 309 19 141 54 219 192 189
335 -22 107 -85 162 -270 237 -174 70 -231 124 -216 205 23 121 182 154 354
74 78 -37 87 -32 86 47 0 63 -15 80 -94 109 -60 22 -241 28 -295 11z"/>
<path d="M15870 1646 c-103 -32 -121 -40 -158 -71 -28 -23 -32 -33 -32 -75 0
-77 15 -81 118 -32 105 50 175 66 257 60 80 -7 131 -32 163 -81 22 -34 27 -53
30 -133 l4 -94 -128 0 c-251 -1 -397 -59 -461 -183 -73 -144 -17 -322 122
-392 56 -28 68 -30 170 -30 99 0 116 3 169 28 33 15 79 43 102 62 23 19 45 35
48 35 3 0 6 -24 6 -54 0 -60 6 -66 71 -66 84 0 79 -25 79 379 0 447 -8 499
-94 585 -57 56 -131 79 -271 83 -104 2 -130 0 -195 -21z m380 -655 l0 -109
-52 -46 c-74 -65 -124 -86 -204 -86 -70 0 -94 8 -136 48 -59 55 -61 155 -5
219 53 61 122 79 305 82 l92 1 0 -109z"/>
<path d="M8432 1633 c-3 -10 -7 -37 -7 -61 0 -70 7 -72 242 -72 112 0 203 -2
203 -5 0 -2 -95 -152 -211 -332 -116 -180 -220 -345 -230 -365 -21 -41 -25
-118 -9 -149 10 -18 25 -19 336 -19 l324 0 11 28 c14 35 4 93 -18 109 -12 10
-77 13 -240 13 -123 0 -223 2 -223 4 0 2 97 156 217 342 119 187 222 353 230
371 16 38 17 107 3 134 -10 18 -24 19 -316 19 -281 0 -305 -1 -312 -17z"/>
</g>
</svg>
